<svg width="38" height="30" viewBox="0 0 38 30" fill="none" xmlns="http://www.w3.org/2000/svg">
<path id="Vector" fill-rule="evenodd" clip-rule="evenodd" d="M7.89272 0C5.72449 0 4.12011 1.88077 4.19195 3.92042C4.2609 5.87997 4.17132 8.41788 3.52665 10.4875C2.87969 12.563 1.7863 13.8782 0 14.047V15.953C1.7863 16.1221 2.87969 17.4367 3.52658 19.5125C4.17132 21.5821 4.26082 24.12 4.19187 26.0796C4.12003 28.1189 5.72442 30 7.89302 30H30.1102C32.2784 30 33.8825 28.1192 33.8106 26.0796C33.7417 24.12 33.8313 21.5821 34.4759 19.5125C35.1229 17.4367 36.2136 16.1216 38 15.953V14.047C36.2137 13.8779 35.123 12.5633 34.4759 10.4875C33.8312 8.41817 33.7417 5.87997 33.8106 3.92042C33.8825 1.88107 32.2784 0 30.1102 0H7.89242H7.89272ZM25.7627 18.467C25.7627 21.2755 23.6489 22.9788 20.141 22.9788H14.1695C13.9987 22.9788 13.8348 22.9115 13.714 22.7918C13.5933 22.6721 13.5254 22.5097 13.5254 22.3405V7.65961C13.5254 7.49032 13.5933 7.32797 13.714 7.20826C13.8348 7.08856 13.9987 7.02131 14.1695 7.02131H20.107C23.032 7.02131 24.9517 8.59154 24.9517 11.0023C24.9517 12.6945 23.6603 14.2093 22.0151 14.4747V14.5629C24.2547 14.8064 25.7627 16.3437 25.7627 18.467ZM19.4898 9.04471H16.085V13.811H18.9527C21.1696 13.811 22.392 12.9263 22.392 11.345C22.3918 9.86299 21.3409 9.04471 19.4898 9.04471ZM16.085 15.7021V20.9547H19.6151C21.9233 20.9547 23.1459 20.0368 23.1459 18.3118C23.1459 16.5869 21.889 15.7019 19.4667 15.7019H16.085V15.7021Z" fill="#7952B3"/>
</svg>
