<svg width="31" height="30" viewBox="0 0 31 30" fill="none" xmlns="http://www.w3.org/2000/svg">
<g id="Group 57">
<path id="Vector" d="M15.3797 0C6.88683 0 0 6.88562 0 15.3797C0 22.175 4.40675 27.9399 10.5176 29.9736C11.2862 30.1159 11.5685 29.6399 11.5685 29.2337C11.5685 28.867 11.5541 27.6554 11.5476 26.3703C7.26883 27.3006 6.36599 24.5557 6.36599 24.5557C5.66639 22.778 4.65836 22.3054 4.65836 22.3054C3.26303 21.3508 4.76354 21.3703 4.76354 21.3703C6.30797 21.4789 7.12119 22.9553 7.12119 22.9553C8.49289 25.3065 10.7191 24.6267 11.5967 24.2339C11.7347 23.2397 12.1333 22.5613 12.5731 22.1773C9.15715 21.7883 5.56603 20.4695 5.56603 14.5765C5.56603 12.8975 6.16684 11.5254 7.15074 10.4484C6.99104 10.061 6.46466 8.49675 7.29971 6.37829C7.29971 6.37829 8.5912 5.96492 11.5302 7.9548C12.7569 7.61393 14.0727 7.44313 15.3797 7.43734C16.6868 7.44313 18.0035 7.61393 19.2326 7.9548C22.1681 5.96492 23.4578 6.37829 23.4578 6.37829C24.2949 8.49675 23.7683 10.061 23.6086 10.4484C24.5946 11.5254 25.1913 12.8973 25.1913 14.5765C25.1913 20.4835 21.5935 21.7843 18.1688 22.165C18.7204 22.6423 19.2119 23.5783 19.2119 25.0131C19.2119 27.0709 19.1941 28.7271 19.1941 29.2337C19.1941 29.643 19.4709 30.1225 20.2506 29.9715C26.3581 27.9356 30.7593 22.1727 30.7593 15.3797C30.7593 6.88562 23.8734 0 15.3797 0Z" fill="white"/>
<path id="Vector_2" d="M5.7602 21.9089C5.72643 21.9852 5.60605 22.0081 5.49664 21.9558C5.38507 21.9056 5.32235 21.8014 5.35853 21.7247C5.3917 21.646 5.51208 21.6241 5.62342 21.6769C5.73523 21.727 5.79892 21.8322 5.7602 21.9089ZM6.51673 22.5839C6.4434 22.6519 6.29998 22.6203 6.20264 22.5128C6.10204 22.4056 6.08322 22.2623 6.15765 22.1932C6.23327 22.1253 6.37235 22.157 6.47319 22.2643C6.57379 22.3728 6.59333 22.5152 6.51661 22.584L6.51673 22.5839ZM7.03576 23.4475C6.94144 23.513 6.78729 23.4516 6.69212 23.3148C6.59791 23.1782 6.59791 23.0141 6.69417 22.9484C6.7897 22.8826 6.94144 22.9417 7.03794 23.0774C7.13202 23.2165 7.13202 23.3806 7.03564 23.4476L7.03576 23.4475ZM7.9134 24.4478C7.82909 24.5407 7.6496 24.5158 7.51813 24.3889C7.38375 24.265 7.34624 24.089 7.4308 23.996C7.51608 23.9028 7.69664 23.929 7.82909 24.0548C7.96261 24.1786 8.00338 24.3559 7.91352 24.4478H7.9134ZM9.04772 24.7855C9.01069 24.9059 8.83772 24.9607 8.66354 24.9095C8.48961 24.8568 8.37574 24.7157 8.41084 24.594C8.44703 24.4728 8.62072 24.4157 8.79622 24.4705C8.96992 24.523 9.08402 24.663 9.04784 24.7855H9.04772ZM10.3388 24.9287C10.3432 25.0556 10.1954 25.1608 10.0126 25.1631C9.82862 25.1671 9.67989 25.0644 9.67796 24.9397C9.67796 24.8116 9.82234 24.7074 10.0062 24.7044C10.189 24.7008 10.3388 24.8027 10.3388 24.9287ZM11.607 24.8801C11.629 25.0039 11.5019 25.131 11.3203 25.1648C11.1418 25.1973 10.9766 25.121 10.9538 24.9983C10.9316 24.8714 11.0611 24.7444 11.2393 24.7115C11.4212 24.6799 11.5839 24.7543 11.607 24.8801Z" fill="white"/>
</g>
</svg>
