<svg width="33" height="30" viewBox="0 0 33 30" fill="none" xmlns="http://www.w3.org/2000/svg">
<g id="Group 75">
<path id="Vector" d="M16.2836 30L22.2801 11.5447H10.2869L16.2834 30H16.2836Z" fill="#E24329"/>
<path id="Vector_2" d="M16.2836 29.9999L10.2869 11.5446H1.88301L16.2836 29.9999Z" fill="#FC6D26"/>
<path id="Vector_3" d="M1.88301 11.5446L0.0607747 17.1531C-0.0202473 17.4024 -0.0202585 17.671 0.0607428 17.9203C0.141744 18.1697 0.2996 18.387 0.511686 18.5411L16.2835 30L1.88288 11.5447L1.88301 11.5446Z" fill="#FCA326"/>
<path id="Vector_4" d="M1.88301 11.5445H10.2869L6.67539 0.428936C6.48952 -0.143042 5.68038 -0.142915 5.49464 0.428936L1.88301 11.5445Z" fill="#E24329"/>
<path id="Vector_5" d="M16.2836 29.9999L22.2801 11.5446H30.6841L16.2834 29.9999H16.2836Z" fill="#FC6D26"/>
<path id="Vector_6" d="M30.6841 11.5446L32.5063 17.1531C32.5873 17.4024 32.5873 17.671 32.5063 17.9204C32.4252 18.1697 32.2674 18.387 32.0553 18.5411L16.2835 30L30.6841 11.5447V11.5446Z" fill="#FCA326"/>
<path id="Vector_7" d="M30.6841 11.5445H22.2801L25.8917 0.428936C26.0776 -0.143042 26.8867 -0.142915 27.0725 0.428936L30.6841 11.5445Z" fill="#E24329"/>
</g>
</svg>
