<svg width="30" height="30" viewBox="0 0 30 30" fill="none" xmlns="http://www.w3.org/2000/svg">
<g id="Frame" clip-path="url(#clip0_37_235)">
<path id="Vector" d="M29.8458 15C29.8458 6.71577 23.1646 0 14.9231 0C6.68117 0 0 6.71577 0 15C0 23.284 6.68117 30 14.9229 30C23.1646 30 29.8458 23.284 29.8458 15Z" fill="#339AF0"/>
<g id="Group">
<path id="Vector_2" d="M12.1441 7.92312C12.0104 8.10483 11.9332 8.32194 11.9222 8.54729C11.9112 8.77265 11.9669 8.99624 12.0823 9.19011C12.1588 9.31828 12.26 9.43 12.3801 9.51883C14.1182 10.8138 15.1161 12.7938 15.1161 14.952C15.1161 17.1101 14.1182 19.0901 12.3801 20.3851C12.2602 20.474 12.1591 20.5857 12.0826 20.7138C11.9274 20.9735 11.8815 21.2841 11.9549 21.5775C11.9912 21.7229 12.0554 21.8597 12.1441 21.9799C12.2326 22.1001 12.3441 22.2016 12.472 22.2786C12.5999 22.3556 12.7418 22.4066 12.8895 22.4285C13.0372 22.4505 13.1877 22.443 13.3325 22.4066C13.4773 22.3702 13.6135 22.3054 13.7332 22.2162C14.2685 21.8171 14.7589 21.361 15.1958 20.8561H18.4154C19.0423 20.8561 19.5517 20.3459 19.5517 19.7161C19.5517 19.0862 19.0434 18.5761 18.4154 18.5761H16.6384C17.1351 17.4326 17.3902 16.1988 17.3877 14.9521C17.3903 13.7053 17.1353 12.4714 16.6386 11.3278H18.4165C19.0434 11.3278 19.5526 10.8178 19.5526 10.1878C19.5526 9.55803 19.0443 9.04803 18.4165 9.04803H15.1977C14.7606 8.54254 14.2698 8.08606 13.7341 7.68662C13.6146 7.59748 13.4786 7.53285 13.334 7.49643C13.1894 7.46001 13.039 7.45253 12.8915 7.47441C12.5931 7.51923 12.3247 7.68061 12.1452 7.92312H12.1441Z" fill="white"/>
<path id="Vector_3" fill-rule="evenodd" clip-rule="evenodd" d="M10.3502 14.6118C10.3448 14.3849 10.3843 14.1593 10.4665 13.9478C10.5484 13.7368 10.6715 13.5443 10.8285 13.3814C10.9849 13.2193 11.1723 13.0901 11.3796 13.0017C11.5862 12.9137 11.8086 12.8683 12.0332 12.8683C12.2579 12.8683 12.4802 12.9137 12.6869 13.0017C12.8942 13.0901 13.0816 13.2192 13.2381 13.3814C13.3952 13.5443 13.5182 13.7368 13.6001 13.9478C13.6822 14.1593 13.7216 14.385 13.7161 14.6118C13.7059 15.055 13.5241 15.4769 13.209 15.7888C12.896 16.0985 12.4736 16.2724 12.0333 16.2728C11.5929 16.2725 11.1703 16.0986 10.8572 15.7888C10.5422 15.4769 10.3604 15.055 10.3502 14.6118Z" fill="white"/>
</g>
</g>
<defs>
<clipPath id="clip0_37_235">
<rect width="30" height="30" fill="white"/>
</clipPath>
</defs>
</svg>
