<svg width="30" height="30" viewBox="0 0 30 30" fill="none" xmlns="http://www.w3.org/2000/svg">
<g id="Frame" clip-path="url(#clip0_37_222)">
<path id="Vector" d="M15 30C23.2843 30 30 23.2843 30 15C30 6.71573 23.2843 0 15 0C6.71573 0 0 6.71573 0 15C0 23.2843 6.71573 30 15 30Z" fill="black"/>
<path id="Vector_2" d="M24.918 26.2534L11.5237 9H9V20.995H11.0189V11.5639L23.3332 27.4742C23.8888 27.1023 24.4182 26.6942 24.918 26.2534Z" fill="url(#paint0_linear_37_222)"/>
<path id="Vector_3" d="M21.1667 9H19.1667V21H21.1667V9Z" fill="url(#paint1_linear_37_222)"/>
</g>
<defs>
<linearGradient id="paint0_linear_37_222" x1="18.1666" y1="19.4167" x2="24.0833" y2="26.75" gradientUnits="userSpaceOnUse">
<stop stop-color="white"/>
<stop offset="1" stop-color="white" stop-opacity="0"/>
</linearGradient>
<linearGradient id="paint1_linear_37_222" x1="20.1667" y1="9" x2="20.1333" y2="17.8125" gradientUnits="userSpaceOnUse">
<stop stop-color="white"/>
<stop offset="1" stop-color="white" stop-opacity="0"/>
</linearGradient>
<clipPath id="clip0_37_222">
<rect width="30" height="30" fill="white"/>
</clipPath>
</defs>
</svg>
