<svg width="31" height="30" viewBox="0 0 31 30" fill="none" xmlns="http://www.w3.org/2000/svg">
<g id="Group 70">
<path id="Vector" d="M12.192 17.6448C13.6527 17.6448 14.8369 16.4607 14.8369 15C14.8369 13.5393 13.6527 12.3551 12.192 12.3551C10.7313 12.3551 9.54712 13.5393 9.54712 15C9.54712 16.4607 10.7313 17.6448 12.192 17.6448Z" fill="#61DAFB"/>
<g id="Group">
<path id="Vector_2" d="M15.192 20.4188C23.03 20.4188 29.384 17.9928 29.384 15.0001C29.384 12.0074 23.03 9.5813 15.192 9.5813C7.354 9.5813 1.00003 12.0074 1.00003 15.0001C1.00003 17.9928 7.354 20.4188 15.192 20.4188Z" stroke="#61DAFB" stroke-width="1.5"/>
<path id="Vector_3" d="M10.4992 17.7094C14.4182 24.4973 19.6962 28.787 22.288 27.2906C24.8797 25.7943 23.8038 19.0785 19.8848 12.2906C15.9658 5.5027 10.6878 1.21303 8.09601 2.70938C5.50425 4.20573 6.58021 10.9215 10.4992 17.7094Z" stroke="#61DAFB" stroke-width="1.5"/>
<path id="Vector_4" d="M10.4992 12.2906C6.58021 19.0785 5.50425 25.7942 8.09601 27.2906C10.6878 28.7869 15.9658 24.4972 19.8848 17.7093C23.8038 10.9214 24.8797 4.20567 22.288 2.70932C19.6962 1.21297 14.4182 5.50264 10.4992 12.2906Z" stroke="#61DAFB" stroke-width="1.5"/>
</g>
</g>
</svg>
