<?xml version="1.0" standalone="no"?>
<!DOCTYPE svg PUBLIC "-//W3C//DTD SVG 20010904//EN"
 "http://www.w3.org/TR/2001/REC-SVG-20010904/DTD/svg10.dtd">
<svg version="1.0" xmlns="http://www.w3.org/2000/svg"
 width="260.000000pt" height="260.000000pt" viewBox="0 0 260.000000 260.000000"
 preserveAspectRatio="xMidYMid meet">
<metadata>
Created by potrace 1.14, written by Peter Selinger 2001-2017
</metadata>
<g transform="translate(0.000000,260.000000) scale(0.100000,-0.100000)"
fill="#000000" stroke="none">
<path d="M0 1300 l0 -1300 1300 0 1300 0 0 1300 0 1300 -1300 0 -1300 0 0
-1300z m956 581 c179 -15 269 -62 321 -169 23 -48 28 -69 27 -132 -3 -169 -89
-281 -256 -331 -37 -11 -68 -22 -68 -25 0 -11 69 -141 176 -331 63 -111 114
-204 114 -208 0 -3 -66 -4 -146 -3 l-146 3 -52 125 c-29 69 -94 206 -143 305
-50 99 -93 189 -97 200 -5 19 -1 20 87 20 105 1 154 14 203 58 48 41 67 82 68
144 0 63 -22 99 -80 128 -32 16 -64 20 -191 23 l-153 4 0 -28 c1 -57 -21 -761
-26 -871 l-6 -113 -135 0 -135 0 6 53 c21 184 46 717 46 979 l0 168 218 3
c119 1 226 3 237 5 11 1 70 -2 131 -7z m1125 0 c143 -13 215 -56 270 -161 21
-39 24 -59 24 -155 0 -102 -2 -114 -29 -168 -51 -100 -143 -171 -263 -202 -63
-16 -229 -20 -253 -6 -8 6 -23 45 -35 88 l-20 78 100 0 c109 1 155 16 204 69
49 52 57 170 15 218 -35 39 -76 48 -213 48 l-130 0 -5 -42 c-9 -68 -26 -581
-26 -784 l0 -184 -135 0 c-135 0 -135 0 -130 23 10 43 35 584 42 879 l6 298
231 3 c127 1 236 3 241 4 6 1 53 -2 106 -6z"/>
</g>
</svg>
