<svg width="24" height="24" viewBox="0 0 24 24" fill="none" xmlns="http://www.w3.org/2000/svg">
<g id="Social Icons" clip-path="url(#clip0_36_182)">
<path id="Vector" fill-rule="evenodd" clip-rule="evenodd" d="M12.1096 0.27002C5.61783 0.27002 0.369898 5.55664 0.369898 12.0969C0.369898 17.3249 3.73243 21.7503 8.39715 23.3166C8.98036 23.4343 9.19399 23.0621 9.19399 22.749C9.19399 22.4748 9.17476 21.535 9.17476 20.5557C5.90907 21.2608 5.22902 19.1459 5.22902 19.1459C4.70421 17.7752 3.92659 17.4229 3.92659 17.4229C2.85773 16.6984 4.00445 16.6984 4.00445 16.6984C5.19009 16.7768 5.81223 17.9124 5.81223 17.9124C6.86163 19.7137 8.55262 19.2048 9.23292 18.8914C9.33 18.1277 9.64119 17.5991 9.9716 17.3054C7.36698 17.0312 4.62659 16.0131 4.62659 11.4702C4.62659 10.1779 5.09277 9.12054 5.83146 8.29823C5.71491 8.00458 5.30664 6.79034 5.94824 5.16519C5.94824 5.16519 6.93948 4.85184 9.17452 6.37919C10.1314 6.1203 11.1183 5.98861 12.1096 5.9875C13.1008 5.9875 14.1113 6.12471 15.0444 6.37919C17.2796 4.85184 18.2709 5.16519 18.2709 5.16519C18.9125 6.79034 18.504 8.00458 18.3874 8.29823C19.1456 9.12054 19.5925 10.1779 19.5925 11.4702C19.5925 16.0131 16.8521 17.0115 14.2281 17.3054C14.6558 17.6774 15.0249 18.3822 15.0249 19.4984C15.0249 21.0844 15.0057 22.3573 15.0057 22.7487C15.0057 23.0621 15.2195 23.4343 15.8025 23.3168C20.4672 21.75 23.8298 17.3249 23.8298 12.0969C23.849 5.55664 18.5818 0.27002 12.1096 0.27002Z" fill="white"/>
</g>
<defs>
<clipPath id="clip0_36_182">
<rect width="23.4599" height="23.4599" fill="white" transform="translate(0.0998535)"/>
</clipPath>
</defs>
</svg>
