<svg width="24" height="24" viewBox="0 0 24 24" fill="none" xmlns="http://www.w3.org/2000/svg">
<g id="Social Icons" clip-path="url(#clip0_36_191)">
<path id="Vector" d="M12.0295 2.11231C15.1636 2.11231 15.5347 2.12605 16.7673 2.18104C17.9128 2.23144 18.5313 2.42389 18.9437 2.58426C19.489 2.79503 19.883 3.05162 20.2908 3.45942C20.7032 3.8718 20.9552 4.26127 21.166 4.80653C21.3264 5.21891 21.5188 5.84207 21.5692 6.98299C21.6242 8.22013 21.6379 8.59128 21.6379 11.7208C21.6379 14.8549 21.6242 15.226 21.5692 16.4586C21.5188 17.6041 21.3264 18.2227 21.166 18.6351C20.9552 19.1803 20.6986 19.5744 20.2908 19.9822C19.8784 20.3945 19.489 20.6466 18.9437 20.8573C18.5313 21.0177 17.9082 21.2101 16.7673 21.2605C15.5301 21.3155 15.159 21.3293 12.0295 21.3293C8.89536 21.3293 8.52421 21.3155 7.29165 21.2605C6.14615 21.2101 5.52758 21.0177 5.1152 20.8573C4.56994 20.6466 4.17588 20.39 3.76808 19.9822C3.3557 19.5698 3.10369 19.1803 2.89292 18.6351C2.73255 18.2227 2.5401 17.5995 2.4897 16.4586C2.43472 15.2215 2.42097 14.8503 2.42097 11.7208C2.42097 8.58669 2.43472 8.21555 2.4897 6.98299C2.5401 5.83749 2.73255 5.21891 2.89292 4.80653C3.10369 4.26127 3.36028 3.86722 3.76808 3.45942C4.18046 3.04704 4.56994 2.79503 5.1152 2.58426C5.52758 2.42389 6.15073 2.23144 7.29165 2.18104C8.52421 2.12605 8.89536 2.11231 12.0295 2.11231ZM12.0295 0C8.84496 0 8.44632 0.013746 7.19543 0.0687302C5.94912 0.123714 5.09229 0.325323 4.35 0.61399C3.57564 0.916403 2.92041 1.31504 2.26977 1.97027C1.61454 2.62091 1.2159 3.27614 0.913489 4.04592C0.624822 4.79279 0.423214 5.64504 0.36823 6.89135C0.313246 8.14682 0.2995 8.54546 0.2995 11.73C0.2995 14.9145 0.313246 15.3131 0.36823 16.564C0.423214 17.8103 0.624822 18.6671 0.913489 19.4094C1.2159 20.1838 1.61454 20.839 2.26977 21.4896C2.92041 22.1403 3.57564 22.5435 4.34542 22.8413C5.09229 23.13 5.94454 23.3316 7.19085 23.3866C8.44174 23.4416 8.84037 23.4553 12.0249 23.4553C15.2094 23.4553 15.608 23.4416 16.8589 23.3866C18.1052 23.3316 18.962 23.13 19.7043 22.8413C20.4741 22.5435 21.1293 22.1403 21.78 21.4896C22.4306 20.839 22.8338 20.1838 23.1317 19.414C23.4203 18.6671 23.622 17.8149 23.6769 16.5686C23.7319 15.3177 23.7457 14.919 23.7457 11.7345C23.7457 8.55004 23.7319 8.1514 23.6769 6.90051C23.622 5.65421 23.4203 4.79737 23.1317 4.05508C22.843 3.27614 22.4444 2.62091 21.7891 1.97027C21.1385 1.31962 20.4833 0.916403 19.7135 0.618572C18.9666 0.329905 18.1144 0.128296 16.8681 0.0733122C15.6126 0.013746 15.214 0 12.0295 0Z" fill="white"/>
<path id="Vector_2" d="M12.0295 5.70459C8.70291 5.70459 6.0041 8.4034 6.0041 11.7299C6.0041 15.0565 8.70291 17.7553 12.0295 17.7553C15.356 17.7553 18.0548 15.0565 18.0548 11.7299C18.0548 8.4034 15.356 5.70459 12.0295 5.70459ZM12.0295 15.6384C9.87132 15.6384 8.12099 13.8881 8.12099 11.7299C8.12099 9.57181 9.87132 7.82148 12.0295 7.82148C14.1876 7.82148 15.9379 9.57181 15.9379 11.7299C15.9379 13.8881 14.1876 15.6384 12.0295 15.6384Z" fill="white"/>
<path id="Vector_3" d="M19.6997 5.46625C19.6997 6.24519 19.0674 6.87293 18.2931 6.87293C17.5141 6.87293 16.8864 6.24061 16.8864 5.46625C16.8864 4.68731 17.5187 4.05957 18.2931 4.05957C19.0674 4.05957 19.6997 4.69189 19.6997 5.46625Z" fill="white"/>
</g>
<defs>
<clipPath id="clip0_36_191">
<rect width="23.4599" height="23.4599" fill="white" transform="translate(0.2995)"/>
</clipPath>
</defs>
</svg>
