<svg width="24" height="24" viewBox="0 0 24 24" fill="none" xmlns="http://www.w3.org/2000/svg">
<g clip-path="url(#clip0_36_187)">
<path d="M21.7233 0H1.732C0.77436 0 0 0.756032 0 1.69076V21.7646C0 22.6993 0.77436 23.4599 1.732 23.4599H21.7233C22.681 23.4599 23.4599 22.6993 23.4599 21.7691V1.69076C23.4599 0.756032 22.681 0 21.7233 0ZM6.96008 19.9913H3.47775V8.79288H6.96008V19.9913ZM5.21891 7.26707C4.1009 7.26707 3.19825 6.36442 3.19825 5.25099C3.19825 4.13756 4.1009 3.2349 5.21891 3.2349C6.33234 3.2349 7.235 4.13756 7.235 5.25099C7.235 6.35984 6.33234 7.26707 5.21891 7.26707ZM19.9913 19.9913H16.5136V14.5479C16.5136 13.2512 16.4907 11.5787 14.7037 11.5787C12.8938 11.5787 12.6189 12.9946 12.6189 14.4563V19.9913H9.1457V8.79288H12.4814V10.3233H12.5272C12.99 9.44353 14.1264 8.51338 15.8171 8.51338C19.3407 8.51338 19.9913 10.8319 19.9913 13.8468V19.9913Z" fill="white"/>
</g>
<defs>
<clipPath id="clip0_36_187">
<rect width="23.4599" height="23.4599" fill="white"/>
</clipPath>
</defs>
</svg>
