<svg width="24" height="22" viewBox="0 0 24 22" fill="none" xmlns="http://www.w3.org/2000/svg">
<path fill-rule="evenodd" clip-rule="evenodd" d="M8.10988e-07 5.91779C0 5.94506 0 5.97246 0 6V16C0 18.8284 0 20.2426 0.87868 21.1213C1.75736 22 3.17157 22 5.99999 22H17.46C20.2884 22 21.7026 22 22.5813 21.1213C23.46 20.2426 23.46 18.8284 23.46 16V6C23.46 5.97246 23.46 5.94506 23.46 5.91779L12.843 13.0294C12.1696 13.4805 11.2904 13.4805 10.617 13.0294L8.10988e-07 5.91779ZM0.0277327 3.71443C0.210248 3.71932 0.393612 3.77422 0.55652 3.88334L11.73 11.3677L22.9035 3.88334C23.0664 3.77422 23.2498 3.71932 23.4323 3.71443C23.3722 2.33121 23.1823 1.47968 22.5813 0.87868C21.7026 0 20.2884 0 17.46 0H6C3.17157 0 1.75736 0 0.87868 0.87868C0.277684 1.47968 0.0877549 2.33121 0.0277327 3.71443Z" fill="white"/>
</svg>
