<svg width="23" height="22" viewBox="0 0 23 22" fill="none" xmlns="http://www.w3.org/2000/svg">
<path d="M2.67962 2.49406L4.46658 0.707107C4.8571 0.316583 5.49027 0.316582 5.88079 0.707107L9.40552 4.23184C9.79605 4.62236 9.79605 5.25553 9.40552 5.64605L7.02638 8.02519C6.65734 8.39424 6.56585 8.95802 6.79926 9.42483C8.14852 12.1234 10.3366 14.3115 13.0352 15.6607C13.502 15.8941 14.0658 15.8027 14.4348 15.4336L16.8139 13.0545C17.2045 12.664 17.8376 12.6639 18.2282 13.0545L21.7529 16.5792C22.1434 16.9697 22.1434 17.6029 21.7529 17.9934L19.9659 19.7804C17.8546 21.8917 14.512 22.1293 12.1233 20.3377L9.03699 18.023C7.29346 16.7154 5.74464 15.1665 4.43699 13.423L2.12226 10.3367C0.330722 7.94798 0.56827 4.60541 2.67962 2.49406Z" fill="white"/>
</svg>
